<?xml version="1.0" standalone="no"?>
<!DOCTYPE svg PUBLIC "-//W3C//DTD SVG 20010904//EN"
 "http://www.w3.org/TR/2001/REC-SVG-20010904/DTD/svg10.dtd">
<svg version="1.0" xmlns="http://www.w3.org/2000/svg"
 width="324.000000pt" height="324.000000pt" viewBox="0 0 324.000000 324.000000"
 preserveAspectRatio="xMidYMid meet">

<g transform="translate(0.000000,324.000000) scale(0.100000,-0.100000)"
fill="#000000" stroke="none">
<path d="M1379 3225 c-454 -74 -850 -321 -1091 -680 -143 -215 -224 -414 -265
-655 -20 -117 -22 -383 -4 -495 30 -187 113 -416 209 -579 40 -66 54 -82 91
-99 54 -24 100 -18 147 18 74 57 77 116 11 230 -195 335 -238 713 -121 1070
65 196 178 380 324 525 256 256 577 390 930 390 254 0 482 -66 697 -202 35
-22 63 -44 63 -50 0 -6 -50 -65 -112 -132 -138 -149 -119 -128 -285 -325 -197
-233 -229 -274 -388 -486 -329 -439 -474 -690 -475 -823 0 -69 10 -86 78 -129
31 -20 75 -51 96 -70 52 -44 103 -45 167 -5 63 41 186 174 317 342 62 80 132
170 156 200 49 62 324 460 424 614 37 55 121 191 187 301 67 110 129 201 137
203 21 4 98 -120 149 -237 85 -197 116 -369 106 -585 -9 -191 -48 -336 -148
-539 -27 -55 -49 -110 -49 -122 0 -19 84 -317 126 -445 12 -37 12 -46 1 -58
-12 -11 -37 -7 -158 28 -79 23 -178 52 -219 66 -111 36 -143 33 -252 -25 -173
-93 -388 -151 -555 -151 -80 0 -104 -4 -131 -20 -93 -57 -96 -195 -4 -252 31
-19 48 -21 134 -20 128 3 303 33 420 73 105 36 246 95 265 111 16 13 42 8 168
-30 55 -17 203 -60 329 -97 253 -74 272 -75 330 -25 43 39 57 88 41 155 -16
65 -172 602 -186 635 -8 21 -3 40 29 110 52 112 108 286 129 402 24 129 24
419 0 543 -21 105 -62 253 -88 310 -10 22 -29 66 -43 98 -33 75 -110 203 -175
290 -28 38 -52 78 -52 90 -1 12 19 65 44 117 51 108 87 227 87 288 0 36 -3 42
-24 48 -41 10 -135 -47 -284 -173 l-73 -62 -92 60 c-170 112 -371 196 -573
239 -129 28 -418 36 -545 15z"/>
<path d="M1445 2728 c-48 -17 -83 -46 -109 -91 -54 -92 -43 -183 33 -258 84
-84 197 -88 283 -11 93 84 103 203 26 296 -55 66 -151 93 -233 64z"/>
<path d="M774 2311 c-142 -65 -162 -282 -34 -367 144 -96 340 6 340 176 0 152
-165 255 -306 191z"/>
<path d="M625 1537 c-60 -29 -77 -47 -106 -112 -69 -156 69 -322 240 -287 104
22 165 98 166 207 1 157 -160 259 -300 192z"/>
<path d="M870 729 c-132 -26 -234 -116 -308 -271 -58 -120 -91 -156 -219 -240
-51 -33 -93 -62 -93 -64 0 -9 179 -69 283 -94 379 -91 609 -45 716 144 81 142
54 305 -68 419 -90 84 -212 126 -311 106z"/>
</g>
</svg>
