<?xml version="1.0" standalone="no"?>
<!DOCTYPE svg PUBLIC "-//W3C//DTD SVG 20010904//EN"
 "http://www.w3.org/TR/2001/REC-SVG-20010904/DTD/svg10.dtd">
<svg version="1.0" xmlns="http://www.w3.org/2000/svg"
 width="128.000000pt" height="128.000000pt" viewBox="0 0 128.000000 128.000000"
 preserveAspectRatio="xMidYMid meet">

<g transform="translate(0.000000,128.000000) scale(0.100000,-0.100000)"
fill="#000000" stroke="none">
<path d="M43 1176 c-25 -21 -28 -32 -31 -97 -2 -41 3 -141 12 -224 13 -120 21
-160 42 -203 40 -82 128 -131 234 -132 l45 0 -60 -25 c-36 -15 -75 -40 -97
-64 -33 -35 -38 -47 -38 -87 0 -25 7 -61 16 -80 22 -46 135 -149 179 -164 50
-16 117 -8 152 19 40 32 89 105 115 172 13 33 25 59 28 59 3 0 15 -26 28 -59
26 -67 75 -140 115 -172 35 -27 102 -35 152 -19 44 15 157 118 179 164 9 19
16 55 16 80 0 40 -5 52 -37 87 -23 24 -62 49 -98 64 l-60 25 45 0 c106 1 194
50 234 132 21 43 29 83 42 203 9 83 14 183 12 224 -3 65 -6 76 -31 97 -68 59
-195 8 -336 -136 -73 -74 -194 -232 -231 -303 -14 -26 -27 -47 -30 -47 -3 0
-16 21 -30 47 -37 71 -158 229 -231 303 -141 144 -268 195 -336 136z"/>
</g>
</svg>
