<?xml version="1.0" encoding="UTF-8"?>
<svg version="1.1" xmlns="http://www.w3.org/2000/svg" width="400" height="400">
<path d="M0 0 C1.97684888 -0.0021647 3.95365826 -0.02061153 5.93041992 -0.03930664 C32.7272668 -0.07964309 59.38909957 7.91297649 79.4440918 26.18530273 C74.958431 33.73752437 69.88417584 40.66791587 64.51489258 47.60473633 C59.02270142 54.70099601 53.71724799 61.92546645 48.4440918 69.18530273 C44.40822414 67.66902349 40.69010512 65.76254528 36.8815918 63.74780273 C22.02945785 56.255967 4.24554152 54.2709168 -11.8840332 59.14624023 C-23.17215473 63.53606527 -32.23575363 70.0847726 -37.5559082 81.18530273 C-43.3986748 96.35288876 -44.20276143 112.21024233 -38.4934082 127.56030273 C-33.81241786 137.66355462 -25.48182691 145.84669021 -15.20043945 150.17749023 C2.26439429 156.32089909 20.92367339 153.70271956 37.4440918 146.18530273 C42.87914463 143.36556709 48.16989811 140.29294703 53.4440918 137.18530273 C57.37383977 140.67034481 59.7463523 144.71229867 62.3815918 149.18530273 C65.50857257 154.4373264 68.69577884 159.61523133 72.1237793 164.67749023 C73.03075562 166.02520508 73.03075562 166.02520508 73.95605469 167.40014648 C75.14294289 169.15368328 76.34242302 170.89877218 77.55517578 172.63452148 C78.09215088 173.43245117 78.62912598 174.23038086 79.18237305 175.05249023 C79.66746338 175.75486816 80.15255371 176.45724609 80.65234375 177.1809082 C81.4440918 179.18530273 81.4440918 179.18530273 80.74023438 181.3137207 C69.04108659 198.2068582 38.65697513 204.99269497 20.0378418 208.40405273 C14.83783961 209.30985957 9.72370349 210.00350836 4.4440918 210.18530273 C3.30842773 210.23686523 2.17276367 210.28842773 1.00268555 210.34155273 C-31.31905797 211.12431948 -61.37087562 201.60335745 -85.2199707 179.44702148 C-105.11079429 160.18818059 -113.6925461 135.19230592 -114.5559082 107.90014648 C-114.84864319 83.01244502 -108.12993695 60.71827577 -92.5559082 41.18530273 C-91.85981445 40.26104492 -91.1637207 39.33678711 -90.4465332 38.38452148 C-89.82262695 37.6587793 -89.1987207 36.93303711 -88.5559082 36.18530273 C-87.8959082 36.18530273 -87.2359082 36.18530273 -86.5559082 36.18530273 C-86.5559082 35.52530273 -86.5559082 34.86530273 -86.5559082 34.18530273 C-85.8959082 34.18530273 -85.2359082 34.18530273 -84.5559082 34.18530273 C-84.5559082 33.52530273 -84.5559082 32.86530273 -84.5559082 32.18530273 C-61.50053803 11.37240018 -30.95852234 -0.0037805 0 0 Z " fill="#FFFFFF" transform="translate(210.555908203125,95.814697265625)"/>
<path d="M0 0 C12.69941114 12.40773164 22.88796956 26.79000117 31.77514648 42.109375 C32.16154297 42.7684082 32.54793945 43.42744141 32.94604492 44.10644531 C46.15793089 66.90885371 54.47991667 93.84497307 56.77514648 120.109375 C56.84072754 120.83382812 56.90630859 121.55828125 56.97387695 122.3046875 C61.41440217 174.61130591 44.72155833 225.59142751 11.77514648 266.109375 C8.26198627 270.2585896 4.5486614 274.19547634 0.77514648 278.109375 C-0.36954102 279.34880859 -0.36954102 279.34880859 -1.53735352 280.61328125 C-13.2477294 292.93686939 -27.57903081 302.61294302 -42.22485352 311.109375 C-42.88388672 311.49577148 -43.54291992 311.88216797 -44.22192383 312.28027344 C-67.02433222 325.49215941 -93.96045159 333.81414519 -120.22485352 336.109375 C-120.94930664 336.17495605 -121.67375977 336.24053711 -122.42016602 336.30810547 C-174.72678442 340.74863069 -225.70690603 324.05578685 -266.22485352 291.109375 C-270.37406811 287.59621479 -274.31095486 283.88288992 -278.22485352 280.109375 C-279.05114258 279.34625 -279.87743164 278.583125 -280.72875977 277.796875 C-293.05234791 266.08649911 -302.72842154 251.75519771 -311.22485352 237.109375 C-311.61125 236.4503418 -311.99764648 235.79130859 -312.39575195 235.11230469 C-325.60763792 212.30989629 -333.9296237 185.37377693 -336.22485352 159.109375 C-336.29043457 158.38492188 -336.35601562 157.66046875 -336.42358398 156.9140625 C-340.8641092 104.60744409 -324.17126536 53.62732249 -291.22485352 13.109375 C-287.7116933 8.9601604 -283.99836844 5.02327366 -280.22485352 1.109375 C-279.46172852 0.28308594 -278.69860352 -0.54320312 -277.91235352 -1.39453125 C-266.20197763 -13.71811939 -251.87067622 -23.39419302 -237.22485352 -31.890625 C-236.56582031 -32.27702148 -235.90678711 -32.66341797 -235.2277832 -33.06152344 C-212.38158544 -46.2987813 -185.51992701 -54.50016377 -159.22485352 -56.890625 C-158.24403809 -56.98102051 -158.24403809 -56.98102051 -157.2434082 -57.07324219 C-98.52973298 -62.18465841 -42.27773553 -40.35681646 0 0 Z M-262.91625977 2.98828125 C-265.03980788 4.93935845 -267.21161032 6.80905782 -269.41235352 8.671875 C-301.85670951 37.10116099 -320.48999057 83.66587194 -323.69750977 125.8359375 C-326.70339296 173.58263539 -312.39538135 221.36404264 -280.90844727 257.7890625 C-279.39885143 259.46979695 -277.87839244 261.14085364 -276.34594727 262.80078125 C-274.39487006 264.92432936 -272.52517069 267.09613181 -270.66235352 269.296875 C-242.23306752 301.741231 -195.66835658 320.37451205 -153.49829102 323.58203125 C-105.75159312 326.58791445 -57.97018588 312.27990283 -21.54516602 280.79296875 C-19.86443156 279.28337291 -18.19337488 277.76291392 -16.53344727 276.23046875 C-14.40989915 274.27939155 -12.23809671 272.40969218 -10.03735352 270.546875 C22.40700248 242.11758901 41.04028354 195.55287806 44.24780273 153.3828125 C47.25368593 105.63611461 32.94567432 57.85470736 1.45874023 21.4296875 C-0.0508556 19.74895305 -1.57131459 18.07789636 -3.10375977 16.41796875 C-5.05483697 14.29442064 -6.92453634 12.12261819 -8.78735352 9.921875 C-37.21663951 -22.522481 -83.78135045 -41.15576205 -125.95141602 -44.36328125 C-176.31444258 -47.53387486 -225.69034403 -31.37868416 -262.91625977 2.98828125 Z " fill="#FFFFFF" transform="translate(340.224853515625,60.890625)"/>
</svg>
