<?xml version="1.0" standalone="no"?>
<!DOCTYPE svg PUBLIC "-//W3C//DTD SVG 20010904//EN"
 "http://www.w3.org/TR/2001/REC-SVG-20010904/DTD/svg10.dtd">
<svg version="1.0" xmlns="http://www.w3.org/2000/svg"
 width="200.000000pt" height="200.000000pt" viewBox="0 0 200.000000 200.000000"
 preserveAspectRatio="xMidYMid meet">

<g transform="translate(0.000000,200.000000) scale(0.100000,-0.100000)"
fill="#000000" stroke="none">
<path d="M1187 1913 c-9 -18 -23 -60 -31 -94 -8 -33 -17 -64 -21 -67 -14 -14
-25 26 -20 69 6 53 -1 79 -21 79 -18 0 -34 -40 -34 -85 0 -18 -7 -41 -16 -50
-15 -14 -18 -14 -33 -1 -9 8 -28 19 -43 25 -18 7 -36 28 -54 63 -29 57 -40 69
-60 61 -23 -9 -26 -43 -8 -93 17 -48 17 -50 -1 -70 -14 -15 -29 -20 -54 -18
-38 3 -43 9 -78 103 -11 29 -25 50 -33 50 -12 0 -14 -15 -12 -81 l3 -81 -33
-21 c-39 -25 -62 -16 -77 31 -13 38 -59 67 -72 46 -8 -14 2 -46 27 -84 14 -21
14 -30 4 -55 -16 -38 -46 -60 -83 -60 -28 0 -69 -33 -92 -74 -16 -28 -59 -22
-112 16 -61 44 -87 51 -114 29 l-20 -16 20 -27 c13 -16 45 -34 83 -47 113 -38
130 -84 53 -148 -62 -51 -75 -74 -85 -146 -11 -75 -28 -91 -88 -83 -67 9 -105
-22 -67 -54 13 -11 34 -15 97 -19 29 -2 58 -38 58 -72 0 -42 -13 -63 -55 -87
-25 -15 -33 -26 -28 -38 5 -13 16 -15 69 -9 62 6 63 6 70 -20 4 -15 24 -47 46
-72 32 -37 38 -51 36 -83 -2 -39 14 -70 36 -70 7 0 17 -5 24 -12 13 -13 -1
-46 -30 -66 -29 -21 -20 -66 13 -70 19 -2 29 4 39 23 20 37 41 46 84 34 24 -7
41 -20 51 -39 11 -21 23 -30 41 -30 47 0 65 -17 59 -54 -5 -24 -2 -38 10 -50
17 -17 21 -16 68 17 34 23 57 16 57 -17 0 -61 29 -71 103 -35 84 41 124 5 92
-82 -27 -71 -30 -108 -10 -116 27 -10 62 38 70 94 11 78 39 130 79 149 32 16
36 16 60 1 47 -31 78 -19 91 35 9 36 31 42 62 18 32 -25 59 -26 72 -2 9 15 15
12 50 -27 27 -29 46 -41 57 -37 8 3 18 6 20 6 11 0 2 55 -16 90 -26 51 -25 73
3 85 12 6 23 20 25 32 4 26 17 28 52 8 14 -8 42 -14 63 -15 31 0 39 5 49 26
11 25 10 29 -22 55 -19 16 -37 29 -41 29 -16 0 -18 34 -4 50 8 9 15 22 15 29
0 8 14 29 30 48 17 18 30 43 30 54 0 11 11 31 25 44 29 30 81 33 165 10 80
-21 120 -20 120 5 0 26 -29 40 -82 40 -99 0 -158 38 -158 102 0 57 30 72 125
65 86 -6 120 7 95 38 -13 16 -28 17 -134 11 l-119 -7 7 25 c4 16 1 35 -9 49
-14 22 -13 26 21 65 27 32 43 42 65 42 42 0 91 27 87 48 -4 24 -56 27 -124 7
-57 -16 -94 -13 -94 9 0 7 16 27 35 46 40 39 33 64 -10 36 -51 -34 -74 -37
-95 -16 -29 29 -25 55 16 100 58 63 41 84 -52 65 -25 -6 -32 -3 -37 12 -4 10
-16 29 -27 43 -20 25 -20 27 -3 73 13 35 14 50 6 58 -18 18 -40 4 -63 -41 -24
-47 -35 -50 -43 -12 -4 15 -11 34 -16 42 -9 12 -13 11 -33 -6 -41 -37 -47 -37
-88 0 -22 20 -49 36 -60 36 -23 0 -27 37 -9 88 6 17 9 41 7 54 -3 22 -4 21
-21 -9z m-127 -196 c0 -29 -34 -62 -55 -54 -20 8 -19 36 2 59 24 26 53 23 53
-5z m234 -59 c20 -28 20 -43 1 -62 -32 -32 -59 16 -39 68 8 22 20 20 38 -6z
m-286 -14 c27 -18 57 -76 65 -124 15 -82 -49 -263 -115 -327 -99 -95 -241 -49
-279 91 -16 58 2 128 52 204 85 130 212 202 277 156z m327 -111 c47 -48 75
-139 75 -242 0 -104 -14 -148 -64 -197 -106 -107 -256 -64 -286 81 -14 68 7
191 47 270 31 62 48 82 93 106 56 29 93 25 135 -18z m-732 -127 c8 -21 -17
-61 -41 -64 -30 -4 -38 22 -18 53 18 27 51 33 59 11z m17 -146 c39 -42 54 -92
55 -177 0 -77 -13 -106 -67 -146 -31 -23 -129 -25 -182 -3 -42 17 -75 78 -76
135 0 75 67 162 154 202 58 26 84 24 116 -11z m889 -114 c20 -24 10 -70 -16
-74 -27 -4 -41 35 -23 67 13 25 23 26 39 7z m-475 -119 c47 -37 84 -102 99
-176 10 -49 21 -69 54 -103 77 -80 96 -151 67 -244 -13 -42 -32 -73 -66 -108
l-47 -49 -59 5 c-69 7 -109 25 -177 83 -78 66 -82 67 -208 59 -125 -7 -167 1
-216 42 -80 67 -52 259 48 328 39 27 112 56 142 56 10 0 37 20 60 45 61 66
129 97 205 93 48 -3 69 -10 98 -31z m434 -15 c34 -39 60 -99 68 -159 5 -42 2
-60 -16 -98 -56 -115 -186 -125 -278 -21 -26 30 -32 45 -32 82 0 79 61 168
142 208 59 29 82 27 116 -12z"/>
</g>
</svg>
