<?xml version="1.0" standalone="no"?>
<!DOCTYPE svg PUBLIC "-//W3C//DTD SVG 20010904//EN"
 "http://www.w3.org/TR/2001/REC-SVG-20010904/DTD/svg10.dtd">
<svg version="1.0" xmlns="http://www.w3.org/2000/svg"
 width="57.000000pt" height="57.000000pt" viewBox="0 0 57.000000 57.000000"
 preserveAspectRatio="xMidYMid meet">

<g transform="translate(0.000000,57.000000) scale(0.100000,-0.100000)"
fill="#000000" stroke="none">
<path d="M117 556 c-93 -34 -107 -70 -107 -273 0 -178 9 -209 70 -251 31 -21
43 -22 204 -22 201 0 226 8 264 80 20 40 22 58 22 195 0 137 -2 155 -22 195
-38 74 -67 85 -243 88 -110 1 -160 -2 -188 -12z m347 -57 c48 -22 58 -64 54
-230 l-3 -151 -33 -29 -32 -29 -156 0 c-231 0 -234 3 -234 226 0 151 9 191 47
213 25 14 325 14 357 0z"/>
<path d="M423 463 c-19 -7 -16 -50 4 -57 24 -10 51 20 37 41 -12 19 -23 24
-41 16z"/>
<path d="M220 411 c-128 -68 -76 -267 69 -265 33 0 58 8 80 23 144 103 7 326
-149 242z m131 -60 c69 -69 -1 -180 -94 -148 -37 12 -57 44 -57 88 0 29 7 43
31 63 41 35 83 34 120 -3z"/>
</g>
</svg>
