<?xml version="1.0" standalone="no"?>
<!DOCTYPE svg PUBLIC "-//W3C//DTD SVG 20010904//EN"
 "http://www.w3.org/TR/2001/REC-SVG-20010904/DTD/svg10.dtd">
<svg version="1.0" xmlns="http://www.w3.org/2000/svg"
 width="128.000000pt" height="128.000000pt" viewBox="0 0 128.000000 128.000000"
 preserveAspectRatio="xMidYMid meet">

<g transform="translate(0.000000,128.000000) scale(0.100000,-0.100000)"
fill="#000000" stroke="none">
<path d="M46 1025 c-21 -10 -21 -17 -21 -355 0 -316 2 -347 18 -372 38 -56 55
-58 414 -58 298 0 332 2 369 19 49 22 80 68 89 132 l7 46 66 5 c244 18 365
287 217 481 -24 31 -55 55 -97 77 l-63 30 -489 3 c-321 1 -497 -2 -510 -8z
m1024 -180 c39 -38 52 -85 39 -145 -15 -71 -53 -103 -129 -108 l-60 -4 0 147
0 147 60 -4 c49 -3 65 -9 90 -33z m-681 -5 c19 -5 45 -19 57 -31 l23 -22 31
26 c117 99 274 -17 215 -159 -13 -32 -227 -254 -244 -254 -4 0 -59 51 -122
113 -100 96 -118 119 -129 159 -20 75 5 138 63 163 39 17 61 18 106 5z"/>
</g>
</svg>
