<?xml version="1.0" standalone="no"?>
<!DOCTYPE svg PUBLIC "-//W3C//DTD SVG 20010904//EN"
 "http://www.w3.org/TR/2001/REC-SVG-20010904/DTD/svg10.dtd">
<svg version="1.0" xmlns="http://www.w3.org/2000/svg"
 width="340.000000pt" height="340.000000pt" viewBox="0 0 340.000000 340.000000"
 preserveAspectRatio="xMidYMid meet">

<g transform="translate(0.000000,340.000000) scale(0.100000,-0.100000)"
fill="#000000" stroke="none">
<path d="M852 2487 c-463 -463 -842 -845 -842 -850 0 -4 121 -7 270 -7 l270 0
2 -782 3 -783 1145 0 1145 0 3 783 2 782 270 0 c210 0 270 3 270 13 0 6 -148
161 -330 342 l-330 330 0 382 0 383 -255 0 -255 0 0 -125 c0 -69 -1 -125 -3
-125 -2 0 -115 113 -252 250 -137 138 -254 250 -260 250 -5 0 -389 -379 -853
-843z m1140 -1364 l3 -218 215 0 215 0 3 218 2 217 85 0 85 0 0 -535 0 -535
-85 0 -85 0 0 250 0 250 -220 0 -220 0 0 -250 0 -250 -85 0 -85 0 0 460 0 460
-145 0 -145 0 0 -460 0 -460 -100 0 -100 0 0 460 0 460 -140 0 -140 0 0 75 0
75 470 0 470 0 2 -217z"/>
</g>
</svg>
